{"title":"Australia.After.Dark.1976.DVDRip.XViD-SPRiNTER","uid":6598729,"size":748629072,"categoryP":"video","categoryS":"movies","magnet":"?xt=urn:btih:0c968c7fbd7acaf250484caaefd284fac10a8888&amp;dn=Australia.After.Dark.1976.DVDRip.XViD-SPRiNTER&amp;tr=udp%3A%2F%2Ftracker.openbittorrent.com%3A80&amp;tr=udp%3A%2F%2Fopen.demonii.com%3A1337&amp;tr=udp%3A%2F%2Ftracker.coppersurfer.tk%3A6969&amp;tr=udp%3A%2F%2Fexodus.desync.com%3A6969","seeders":0,"leechers":1,"uploader":"sceneline","files":55,"time":1313126942,"description":"- &lt;a href=&quot;\nhttp://www.Speed.Cd&quot; rel=&quot;nofollow&quot; target=&quot;_NEW&quot;&gt;\nhttp://www.Speed.Cd&lt;/a&gt; \n       &lt;a href=&quot;\nhttp://www.Speed.Cd&quot; rel=&quot;nofollow&quot; target=&quot;_NEW&quot;&gt;\nhttp://www.Speed.Cd&lt;/a&gt;      fast  and The Hottest Private Tracker on the net\n\n(((--Registration will be open on june every weekend--)))\n\nPlease Seed back to make the speed Faster!!!\n\n------------------nfo--------------------------\n-\n                                                     \n                                                   \n                                                         \n                                                          \n                                                           \n                                                          \n                                                          \n                                                          \n                                                           \n                                                         \n                                                          \n                                                        \n                                                      \n                                     \n                                                 \n                                                   \n                                             \n                                              \n                                                     \n                                                      \n                                                      \n                                                      \n                                                    \n                                                     \n                                                   \n                                                     \n                                                     \n                                                      \n                                                     \n                                                      \n                                                    \n                 ARTiCHOKE                        \n                                                \n                      \n                                                        \n                                                      \n                                                      \n                                               \n                                          \n                                                   \n                                            \n                                                    \n                                                       \n                                                        \n                                                      \n                                                \n                                                        \n                                                 \n                                              \n                                                  \n                                                \n                                                  \n                                        \n\n      \n                                \n      SPRiNTER proudly presents...     \n                                \n      \n \n Australia.After.Dark.1976.DVDRip.XViD-SPRiNTER\n &lt;a href=&quot; http://www.imdb.com/title/tt0207983/&quot; rel=&quot;nofollow&quot; target=&quot;_NEW&quot;&gt; http://www.imdb.com/title/tt0207983/&lt;/a&gt;\n \n\n Date: 2011.08\n\n \n\n      \n                 \n      Release notes     \n                 \n      \n\n \n\n\tEnjoy!\n\n\n      \n           \n     Greetings    \n           \n      \n\n\nNTX FiCO HNR CiNEFiLE AEN HUMANiSM TASTE 0MNiDVD\n\n\n      \n           \n      Details     \n           \n      \n\nFormat                           : AVI\nFormat/Info                      : Audio Video Interleave\nFile size                        : 702 MiB\nDuration                         : 1h 22mn\nOverall bit rate                 : 1 194 Kbps\nWriting application              : Nandub v1.0rc2\nWriting library                  : Nandub build 1853/release\n\nVideo\nID                               : 0\nFormat                           : MPEG-4 Visual\nFormat profile                   : Advanced Simple@L5\nFormat settings, BVOP            : No\nFormat settings, QPel            : No\nFormat settings, GMC             : No warppoints\nFormat settings, Matrix          : Default (H.263)\nCodec ID                         : XVID\nCodec ID/Hint                    : XviD\nDuration                         : 1h 22mn\nBit rate                         : 1 119 Kbps\nWidth                            : 576 pixels\nHeight                           : 352 pixels\nDisplay aspect ratio             : 1.636\nFrame rate                       : 25.000 fps\nColor space                      : YUV\nChroma subsampling               : 4:2:0\nBit depth                        : 8 bits\nScan type                        : Progressive\nCompression mode                 : Lossy\nBits/(Pixel*Frame)               : 0.221\nStream size                      : 657 MiB (94%)\nWriting library                  : XviD 61\n\nAudio\nID                               : 1\nFormat                           : MPEG Audio\nFormat version                   : Version 1\nFormat profile                   : Layer 3\nCodec ID                         : 55\nCodec ID/Hint                    : MP3\nDuration                         : 1h 22mn\nBit rate mode                    : Variable\nBit rate                         : 62.7 Kbps\nChannel(s)                       : 1 channel\nSampling rate                    : 48.0 KHz\nCompression mode                 : Lossy\nStream size                      : 36.8 MiB (5%)\nAlignment                        : Aligned on interleaves\nInterleave, duration             : 24 ms (0.60 video frame)\nInterleave, preload duration     : 459 ms\nWriting library                  : LAME3.89 (alpha)","torrent":{"xt":"urn:btih:0c968c7fbd7acaf250484caaefd284fac10a8888","amp;dn":"Australia.After.Dark.1976.DVDRip.XViD-SPRiNTER","amp;tr":["udp%3A%2F%2Ftracker.openbittorrent.com%3A80","udp%3A%2F%2Fopen.demonii.com%3A1337","udp%3A%2F%2Ftracker.coppersurfer.tk%3A6969","udp%3A%2F%2Fexodus.desync.com%3A6969"],"infoHash":"0c968c7fbd7acaf250484caaefd284fac10a8888","infoHashBuffer":{"type":"Buffer","data":[12,150,140,127,189,122,202,242,80,72,76,170,239,210,132,250,193,10,136,136]},"announce":[],"urlList":[]}}